<?xml version="1.0" standalone="no"?>
<!DOCTYPE svg PUBLIC "-//W3C//DTD SVG 20010904//EN"
 "http://www.w3.org/TR/2001/REC-SVG-20010904/DTD/svg10.dtd">
<svg version="1.0" xmlns="http://www.w3.org/2000/svg"
 width="732.000000pt" height="1280.000000pt" viewBox="0 0 732.000000 1280.000000"
 preserveAspectRatio="xMidYMid meet">
<metadata>
Created by potrace 1.15, written by Peter Selinger 2001-2017
</metadata>
<g transform="translate(0.000000,1280.000000) scale(0.100000,-0.100000)"
fill="#009688" stroke="none">
<path d="M3300 12790 c-1203 -92 -2064 -653 -2573 -1675 -261 -524 -409 -1117
-447 -1797 -13 -216 -7 -252 44 -295 l34 -28 6 -115 c29 -502 89 -670 240
-670 120 0 173 88 214 355 16 102 20 115 26 85 79 -370 292 -826 534 -1144
188 -248 446 -491 696 -658 50 -33 95 -64 99 -68 5 -5 -20 -27 -55 -51 -185
-125 -369 -279 -547 -459 -1192 -1203 -1782 -3323 -1500 -5395 11 -82 27 -160
35 -173 23 -36 55 -42 215 -42 l149 0 0 -127 c0 -141 10 -188 60 -282 38 -70
105 -138 183 -185 119 -71 -107 -66 2954 -66 3020 0 2803 -4 2931 58 77 37
169 131 208 212 42 86 54 148 54 280 l0 110 144 0 c80 0 156 4 170 10 42 16
55 50 76 201 148 1089 54 2252 -265 3253 -367 1154 -998 2076 -1782 2605 -35
23 -63 44 -63 46 0 3 12 11 28 19 38 20 203 138 287 207 246 199 492 482 660
759 123 202 268 533 321 733 18 68 34 88 34 42 0 -41 47 -174 73 -209 72 -94
202 -84 263 20 52 88 89 295 101 559 5 133 7 143 39 205 88 174 105 255 104
514 0 228 -11 392 -40 576 -98 613 -318 1123 -665 1540 -98 118 -299 307 -430
406 -468 351 -1038 553 -1775 629 -182 19 -674 27 -840 15z m844 -275 c1009
-111 1708 -484 2159 -1152 220 -325 375 -733 447 -1173 26 -163 26 -164 -2
-146 -68 44 -159 22 -208 -50 -17 -23 -30 -49 -30 -56 -1 -26 -17 16 -29 77
-18 88 -77 286 -118 395 -143 383 -364 735 -643 1024 -323 335 -691 574 -1117
727 -528 189 -1136 212 -1678 64 -369 -101 -733 -285 -1035 -525 -130 -103
-361 -333 -463 -462 -192 -241 -381 -580 -483 -863 -48 -136 -114 -388 -135
-515 l-12 -74 -17 58 c-25 80 -61 130 -109 152 -22 11 -41 25 -41 32 0 23 67
292 100 396 135 437 332 821 578 1129 88 110 297 317 402 399 450 349 967 532
1640 582 120 9 660 -4 794 -19z"/>
</g>
</svg>
